<svg width="20" height="20" viewBox="0 0 20 20" fill="none" xmlns="http://www.w3.org/2000/svg">
<path d="M19.3977 1.51337H15.4745V0.719452C15.4745 0.38681 15.2049 0.117188 14.8723 0.117188C14.5398 0.117188 14.27 0.38681 14.27 0.719452V1.51337H5.72998V0.719452C5.72998 0.38681 5.46021 0.117188 5.12772 0.117188C4.79507 0.117188 4.52545 0.38681 4.52545 0.719452V1.51337H0.602264C0.269623 1.51337 0 1.78299 0 2.11563V19.2685C0 19.6011 0.269623 19.8708 0.602264 19.8708H19.3977C19.7304 19.8708 20 19.6011 20 19.2685C20 19.0988 20 2.547 20 2.11563C20 1.78299 19.7304 1.51337 19.3977 1.51337ZM1.20453 2.7179H4.52545V3.51181C4.52545 3.84445 4.79507 4.11407 5.12772 4.11407C5.46021 4.11407 5.72998 3.84445 5.72998 3.51181V2.7179H14.27V3.51181C14.27 3.84445 14.5398 4.11407 14.8723 4.11407C15.2049 4.11407 15.4745 3.84445 15.4745 3.51181V2.7179H18.7955V5.91049H1.20453V2.7179ZM1.20453 18.6664V7.11502H18.7955V18.6664H1.20453Z" fill="#2C2C2C"/>
</svg>
