<svg width="26" height="20" viewBox="0 0 26 20" fill="none" xmlns="http://www.w3.org/2000/svg">
<path d="M21.7533 0H4.24667C3.12087 0.0016834 2.04165 0.471541 1.24559 1.30657C0.449536 2.14159 0.00160484 3.27364 0 4.45455V15.5455C0.00160484 16.7264 0.449536 17.8584 1.24559 18.6934C2.04165 19.5285 3.12087 19.9983 4.24667 20H21.7533C22.8791 19.9983 23.9584 19.5285 24.7544 18.6934C25.5505 17.8584 25.9984 16.7264 26 15.5455V4.45455C25.9984 3.27364 25.5505 2.14159 24.7544 1.30657C23.9584 0.471541 22.8791 0.0016834 21.7533 0ZM24.2667 15.5455C24.2667 16.2447 24.0019 16.9152 23.5305 17.4096C23.0592 17.9041 22.4199 18.1818 21.7533 18.1818H4.24667C3.58009 18.1818 2.94081 17.9041 2.46947 17.4096C1.99813 16.9152 1.73333 16.2447 1.73333 15.5455V4.45455C1.73333 4.10833 1.79834 3.76551 1.92465 3.44565C2.05096 3.12579 2.23609 2.83516 2.46947 2.59036C2.94081 2.09594 3.58009 1.81818 4.24667 1.81818H21.7533C22.4199 1.81818 23.0592 2.09594 23.5305 2.59036C24.0019 3.08477 24.2667 3.75534 24.2667 4.45455V15.5455Z" fill="#319D50"/>
<path d="M22.2804 3.90275C22.1179 3.73233 21.8975 3.63659 21.6677 3.63659C21.4379 3.63659 21.2175 3.73233 21.055 3.90275L13.001 12.3509L4.94708 3.90275C4.78363 3.73716 4.5647 3.64553 4.33747 3.6476C4.11023 3.64967 3.89286 3.74528 3.73217 3.91383C3.57148 4.08238 3.48034 4.31039 3.47836 4.54875C3.47639 4.78711 3.56374 5.01675 3.72161 5.18821L8.30888 10L3.72161 14.8118C3.63884 14.8957 3.57281 14.996 3.52739 15.1069C3.48197 15.2178 3.45806 15.3371 3.45706 15.4578C3.45606 15.5786 3.47799 15.6983 3.52157 15.81C3.56515 15.9217 3.6295 16.0232 3.71087 16.1086C3.79225 16.1939 3.88901 16.2614 3.99552 16.3071C4.10203 16.3529 4.21615 16.3759 4.33123 16.3748C4.4463 16.3738 4.56003 16.3487 4.66577 16.301C4.7715 16.2534 4.86713 16.1841 4.94708 16.0973L9.53435 11.2855L12.3883 14.2791C12.5508 14.4495 12.7712 14.5453 13.001 14.5453C13.2308 14.5453 13.4512 14.4495 13.6138 14.2791L16.4677 11.2855L21.055 16.0973C21.2184 16.2629 21.4373 16.3545 21.6646 16.3525C21.8918 16.3504 22.1092 16.2548 22.2699 16.0862C22.4305 15.9177 22.5217 15.6897 22.5237 15.4513C22.5256 15.2129 22.4383 14.9833 22.2804 14.8118L17.6932 10L22.2804 5.18821C22.4429 5.01773 22.5342 4.78654 22.5342 4.54548C22.5342 4.30442 22.4429 4.07323 22.2804 3.90275Z" fill="#319D50"/>
</svg>
