<svg width="40" height="40" viewBox="0 0 40 40" fill="none" xmlns="http://www.w3.org/2000/svg">
<g clip-path="url(#clip0_899_431)">
<path d="M20 0L23.3175 34.8571C31.4434 33.3056 37.5855 26.1635 37.5855 17.5855C37.5855 7.87332 29.7122 0 20 0V0Z" fill="#FF0F04"/>
<path d="M35.1745 17.5855C35.1745 7.87332 28.3822 0 20.0035 0C10.2913 0 2.41797 7.87332 2.41797 17.5855C2.41797 26.1635 8.5601 33.3056 16.686 34.8572L18.9237 39.3326C19.3686 40.2225 20.6384 40.2225 21.0833 39.3326L23.321 34.8572C30.0718 33.3056 35.1745 26.1635 35.1745 17.5855Z" fill="#FF362D"/>
<path d="M20 6.03622V29.1348C26.3785 29.1348 31.5493 23.964 31.5493 17.5855C31.5493 11.207 26.3785 6.03622 20 6.03622Z" fill="white"/>
<path d="M29.1411 17.5855C29.1411 11.207 25.0513 6.03622 20.0063 6.03622C13.6278 6.03622 8.45703 11.207 8.45703 17.5855C8.45703 23.964 13.6278 29.1348 20.0063 29.1348C25.0513 29.1348 29.1411 23.964 29.1411 17.5855Z" fill="white"/>
</g>
<defs>
<clipPath id="clip0_899_431">
<rect width="40" height="40" fill="white"/>
</clipPath>
</defs>
</svg>
