<svg width="24" height="24" viewBox="0 0 24 24" fill="none" xmlns="http://www.w3.org/2000/svg">
<path d="M22.5262 16.9455C22.4865 16.9125 17.9888 13.692 16.776 13.9088C16.1903 14.0122 15.855 14.4113 15.1838 15.2115C15.0758 15.3405 14.8155 15.6488 14.6145 15.8685C14.1902 15.7303 13.7764 15.5619 13.3762 15.3645C11.3104 14.3588 9.64124 12.6896 8.6355 10.6237C8.43815 10.2236 8.26972 9.80975 8.1315 9.3855C8.352 9.18375 8.661 8.9235 8.793 8.8125C9.58875 8.145 9.98775 7.80975 10.0912 7.22325C10.3035 6.009 7.0875 1.5135 7.0545 1.473C6.90804 1.26529 6.7173 1.09269 6.49603 0.967663C6.27476 0.842632 6.02849 0.768289 5.775 0.75C4.4715 0.75 0.75 5.577 0.75 6.39075C0.75 6.438 0.81825 11.241 6.741 17.2658C12.759 23.1817 17.562 23.25 17.6092 23.25C18.423 23.25 23.25 19.5285 23.25 18.225C23.2317 17.9714 23.1573 17.7251 23.0321 17.5038C22.907 17.2825 22.7342 17.0918 22.5262 16.9455ZM17.5267 21.7455C16.8713 21.6915 12.8407 21.1597 7.8015 16.209C2.82525 11.1427 2.307 7.101 2.25525 6.47475C3.23833 4.93173 4.42559 3.52877 5.78475 2.304C5.81475 2.334 5.8545 2.379 5.9055 2.4375C6.94787 3.86042 7.84581 5.3837 8.586 6.98475C8.34529 7.2269 8.09088 7.45503 7.824 7.668C7.41014 7.98334 7.03011 8.34075 6.69 8.7345C6.63245 8.81525 6.59149 8.9066 6.56947 9.00328C6.54746 9.09996 6.54483 9.20005 6.56175 9.29775C6.72047 9.9853 6.96356 10.6506 7.2855 11.2785C8.43892 13.647 10.3528 15.5607 12.7215 16.7137C13.3493 17.0361 14.0146 17.2795 14.7023 17.4382C14.7999 17.4554 14.9001 17.4529 14.9968 17.4309C15.0935 17.4089 15.1849 17.3678 15.2655 17.31C15.6607 16.9684 16.0196 16.5869 16.3365 16.1715C16.5712 15.891 16.8855 15.5168 17.004 15.411C18.6096 16.1505 20.1368 17.0495 21.5625 18.0945C21.6248 18.147 21.6683 18.1875 21.6975 18.2137C20.4729 19.5733 19.0699 20.7609 17.5267 21.744V21.7455Z" fill="#319D50"/>
<path d="M13.5 11.25H18.75V9.75001H15.3105L21.9053 3.15526L20.8448 2.09476L14.25 8.68951V5.25001H12.75V10.5C12.75 10.6989 12.829 10.8897 12.9697 11.0303C13.1103 11.171 13.3011 11.25 13.5 11.25Z" fill="#319D50"/>
</svg>
