<svg width="20" height="20" viewBox="0 0 20 20" fill="none" xmlns="http://www.w3.org/2000/svg">
<path d="M10.0003 0C5.22058 0 1.33203 3.73129 1.33203 8.31777C1.33203 14.5423 9.28531 19.675 9.6241 19.8904C9.73882 19.9636 9.86941 20 10.0003 20C10.1309 20 10.2617 19.9633 10.3764 19.8904C10.7152 19.675 18.6685 14.5423 18.6685 8.31777C18.6685 3.73129 14.7802 0 10.0003 0ZM10 18.4528C8.46054 17.3809 2.73391 13.0708 2.73391 8.31777C2.73391 4.50422 5.99347 1.40188 10.0003 1.40188C14.0071 1.40188 17.2666 4.50422 17.2666 8.31777C17.2666 13.0631 11.5388 17.3795 10 18.4528Z" fill="white"/>
<path d="M9.99937 3.80859C7.82203 3.80859 6.05078 5.57984 6.05078 7.75719C6.05078 9.9343 7.82203 11.7055 9.99937 11.7055C12.1767 11.7055 13.948 9.9343 13.948 7.75719C13.948 5.58012 12.1767 3.80859 9.99937 3.80859ZM9.99937 10.3035C8.59516 10.3035 7.45266 9.16117 7.45266 7.75699C7.45266 6.35277 8.5952 5.21027 9.99937 5.21027C11.4036 5.21027 12.5461 6.35258 12.5461 7.75699C12.5461 9.16117 11.4036 10.3035 9.99937 10.3035Z" fill="white"/>
</svg>
