<svg width="50" height="50" viewBox="0 0 50 50" fill="none" xmlns="http://www.w3.org/2000/svg">
<g clip-path="url(#clip0_899_447)">
<path d="M42.6758 0H19.043C14.9937 0 11.7188 3.37256 11.7188 7.42188V11.8164H7.32422C3.275 11.8164 0 15.189 0 19.2383V33.8867C0 37.4237 2.52041 40.3832 5.85938 41.0638V48.5352C5.85938 49.1276 6.21631 49.6618 6.76367 49.8885C7.31104 50.1152 7.94111 49.9898 8.36006 49.571L16.7201 41.2109H27.832C31.8811 41.2109 35.2539 37.9361 35.2539 33.8867V31.5363L41.6457 37.8579C42.0669 38.2743 42.6958 38.3954 43.24 38.1682C43.7854 37.9405 44.1406 37.4074 44.1406 36.8164V29.345C47.4795 28.6645 50 25.7049 50 22.168V7.42188C50 3.37256 46.725 0 42.6758 0ZM32.3242 33.8867C32.3242 36.2688 30.2671 38.2812 27.832 38.2812H16.1133C15.7248 38.2812 15.3522 38.4355 15.0775 38.7103L8.78906 44.9987V39.7461C8.78906 38.9371 8.1332 38.2812 7.32422 38.2812C4.90107 38.2812 2.92969 36.3099 2.92969 33.8867V19.2383C2.92969 16.8032 4.94209 14.7461 7.32422 14.7461H27.832C30.2671 14.7461 32.3242 16.8032 32.3242 19.2383V33.8867ZM47.0703 22.168C47.0703 24.5911 45.0989 26.5625 42.6758 26.5625C41.8668 26.5625 41.2109 27.2184 41.2109 28.0273V33.3074L35.2539 27.4158V19.2383C35.2539 15.187 31.8805 11.8164 27.832 11.8164H14.6484V7.42188C14.6484 4.98682 16.6608 2.92969 19.043 2.92969H42.6758C45.0579 2.92969 47.0703 4.98682 47.0703 7.42188V22.168Z" fill="#319D50"/>
<path d="M8.78906 25.0977C7.98135 25.0977 7.32422 25.7548 7.32422 26.5625C7.32422 27.3702 7.98135 28.0273 8.78906 28.0273C9.59678 28.0273 10.2539 27.3702 10.2539 26.5625C10.2539 25.7548 9.59678 25.0977 8.78906 25.0977Z" fill="#319D50"/>
<path d="M17.5781 25.0977C16.7704 25.0977 16.1133 25.7548 16.1133 26.5625C16.1133 27.3702 16.7704 28.0273 17.5781 28.0273C18.3858 28.0273 19.043 27.3702 19.043 26.5625C19.043 25.7548 18.3858 25.0977 17.5781 25.0977Z" fill="#319D50"/>
<path d="M26.3672 25.0977C25.5595 25.0977 24.9023 25.7548 24.9023 26.5625C24.9023 27.3702 25.5595 28.0273 26.3672 28.0273C27.1749 28.0273 27.832 27.3702 27.832 26.5625C27.832 25.7548 27.1749 25.0977 26.3672 25.0977Z" fill="#319D50"/>
</g>
<defs>
<clipPath id="clip0_899_447">
<rect width="50" height="50" fill="white"/>
</clipPath>
</defs>
</svg>
