<svg width="24" height="24" viewBox="0 0 24 24" fill="none" xmlns="http://www.w3.org/2000/svg">
<path d="M12 18.75C5.90553 18.75 1.11078 12.7193 0.909778 12.4628C0.806258 12.3307 0.75 12.1678 0.75 12C0.75 11.8322 0.806258 11.6693 0.909778 11.5373C1.11078 11.2808 5.90553 5.25 12 5.25C18.0945 5.25 22.8893 11.2808 23.0903 11.5373C23.1938 11.6693 23.2501 11.8322 23.2501 12C23.2501 12.1678 23.1938 12.3307 23.0903 12.4628C22.8893 12.7193 18.0945 18.75 12 18.75V18.75ZM2.48478 12C3.69903 13.3605 7.55628 17.25 12 17.25C16.4438 17.25 20.301 13.3605 21.5153 12C20.301 10.6395 16.4438 6.75 12 6.75C7.55628 6.75 3.69903 10.6395 2.48478 12V12Z" fill="#898A8E"/>
<path d="M12 15.75C11.2583 15.75 10.5333 15.5301 9.91661 15.118C9.29993 14.7059 8.81928 14.1203 8.53545 13.4351C8.25162 12.7498 8.17736 11.9958 8.32206 11.2684C8.46675 10.541 8.8239 9.8728 9.34835 9.34835C9.8728 8.8239 10.541 8.46675 11.2684 8.32206C11.9958 8.17736 12.7498 8.25162 13.4351 8.53545C14.1203 8.81928 14.7059 9.29993 15.118 9.91661C15.5301 10.5333 15.75 11.2583 15.75 12C15.7488 12.9942 15.3533 13.9473 14.6503 14.6503C13.9473 15.3533 12.9942 15.7488 12 15.75ZM12 9.75C11.555 9.75 11.12 9.88196 10.75 10.1292C10.38 10.3764 10.0916 10.7278 9.92127 11.139C9.75097 11.5501 9.70642 12.0025 9.79323 12.4389C9.88005 12.8754 10.0943 13.2763 10.409 13.591C10.7237 13.9057 11.1246 14.1199 11.561 14.2068C11.9975 14.2936 12.4499 14.249 12.861 14.0787C13.2722 13.9084 13.6236 13.62 13.8708 13.25C14.118 12.88 14.25 12.445 14.25 12C14.25 11.4033 14.0129 10.831 13.591 10.409C13.169 9.98705 12.5967 9.75 12 9.75Z" fill="#898A8E"/>
</svg>
