<?xml version="1.0" encoding="utf-8"?><svg xmlns="http://www.w3.org/2000/svg" xmlns:xlink="http://www.w3.org/1999/xlink"><symbol viewBox="0 0 41 8" id="arrow" xmlns="http://www.w3.org/2000/svg"><path d="M40.354 4.354a.5.5 0 000-.708L37.172.464a.5.5 0 10-.707.708L39.293 4l-2.828 2.828a.5.5 0 10.707.708l3.182-3.182zM0 4.5h40v-1H0v1z"/></symbol><symbol viewBox="0 0 41 8" id="arrow-next" xmlns="http://www.w3.org/2000/svg"><path d="M40.354 4.354a.5.5 0 000-.708L37.172.464a.5.5 0 10-.707.708L39.293 4l-2.828 2.828a.5.5 0 10.707.708l3.182-3.182zM0 4.5h40v-1H0v1z"/></symbol><symbol viewBox="0 0 41 8" id="arrow-prev" xmlns="http://www.w3.org/2000/svg"><path d="M.646 4.354a.5.5 0 010-.708L3.828.464a.5.5 0 11.708.708L1.707 4l2.829 2.828a.5.5 0 11-.708.708L.646 4.354zM41 4.5H1v-1h40v1z"/></symbol><symbol viewBox="0 0 24 24" id="basket" xmlns="http://www.w3.org/2000/svg"><path d="M21.92 22.997L20.46 6.734a.861.861 0 00-.858-.785h-3.011V4.591A4.596 4.596 0 0012 0a4.596 4.596 0 00-4.59 4.591v1.358H4.396a.861.861 0 00-.858.785L2.072 23.062A.861.861 0 002.93 24h18.14a.861.861 0 00.85-1.003zM9.134 4.591A2.871 2.871 0 0112 1.723a2.871 2.871 0 012.868 2.868v1.358H9.133V4.591zm-5.26 17.686l1.31-14.605H7.41v1.54a.861.861 0 101.723 0v-1.54h5.735v1.54a.861.861 0 101.723 0v-1.54h2.224l1.311 14.605H3.872z"/></symbol><symbol viewBox="0 0 20 20" id="clock" xmlns="http://www.w3.org/2000/svg"><path d="M10 0C4.486 0 0 4.486 0 10s4.486 10 10 10 10-4.486 10-10S15.514 0 10 0zm0 18.54c-4.709 0-8.54-3.831-8.54-8.54S5.29 1.46 10 1.46s8.54 3.83 8.54 8.54-3.83 8.54-8.54 8.54z"/><path d="M13.406 10h-3.163V5.62a.73.73 0 10-1.46 0v5.11c0 .403.327.73.73.73h3.893a.73.73 0 000-1.46z"/></symbol><symbol viewBox="0 0 24 24" id="fb" xmlns="http://www.w3.org/2000/svg"><g clip-path="url(#fclip0_1700_7478)"><path d="M21.077 0H2.923A2.926 2.926 0 000 2.923v18.154A2.926 2.926 0 002.923 24h9.305a.709.709 0 00.709-.709V14.7a.709.709 0 00-.71-.709H9.682v-2.017h2.547a.709.709 0 00.709-.709V8.396a2.818 2.818 0 012.815-2.815h2.457v2.017h-2.457a.799.799 0 00-.798.798v2.868c0 .392.317.709.708.709h2.548v2.017h-2.548a.709.709 0 00-.708.709v8.592c0 .392.317.709.708.709h5.415A2.926 2.926 0 0024 21.077V2.923A2.926 2.926 0 0021.077 0zm1.506 21.077c0 .83-.676 1.506-1.506 1.506h-4.706v-7.176h2.547a.709.709 0 00.709-.708v-3.435a.709.709 0 00-.709-.708h-2.547v-1.54h2.547a.709.709 0 00.709-.71V4.872a.709.709 0 00-.709-.709h-3.166a4.237 4.237 0 00-4.233 4.233v2.16H8.972a.709.709 0 00-.709.708V14.7c0 .391.318.708.709.708h2.547v7.176H2.923c-.83 0-1.506-.676-1.506-1.506V2.923c0-.83.676-1.506 1.506-1.506h18.154c.83 0 1.506.676 1.506 1.506v18.154z"/></g><defs><clipPath id="fclip0_1700_7478"><path d="M0 0h24v24H0z"/></clipPath></defs></symbol><symbol viewBox="0 0 24 24" id="github" xmlns="http://www.w3.org/2000/svg"><path d="M12 0C5.374 0 0 5.373 0 12c0 5.302 3.438 9.8 8.207 11.387.599.111.793-.261.793-.577v-2.234c-3.338.726-4.033-1.416-4.033-1.416-.546-1.387-1.333-1.756-1.333-1.756-1.089-.745.083-.729.083-.729 1.205.084 1.839 1.237 1.839 1.237 1.07 1.834 2.807 1.304 3.492.997.107-.775.418-1.305.762-1.604-2.665-.305-5.467-1.334-5.467-5.931 0-1.311.469-2.381 1.236-3.221-.124-.303-.535-1.524.117-3.176 0 0 1.008-.322 3.301 1.23A11.509 11.509 0 0112 5.803c1.02.005 2.047.138 3.006.404 2.291-1.552 3.297-1.23 3.297-1.23.653 1.653.242 2.874.118 3.176.77.84 1.235 1.911 1.235 3.221 0 4.609-2.807 5.624-5.479 5.921.43.372.823 1.102.823 2.222v3.293c0 .319.192.694.801.576C20.566 21.797 24 17.3 24 12c0-6.627-5.373-12-12-12z"/></symbol><symbol viewBox="0 0 24 24" id="heart" xmlns="http://www.w3.org/2000/svg"><path d="M22.037 2.946A6.574 6.574 0 0017.234.849a6.582 6.582 0 00-4.809 2.096l-.423.448-.424-.448a6.563 6.563 0 00-9.615 0 7.36 7.36 0 000 10.008l9.416 9.93a.858.858 0 001.245 0l9.413-9.93a7.36 7.36 0 000-10.007zm-1.24 8.826h-.002l-8.793 9.275-8.795-9.275a5.625 5.625 0 010-7.647 4.848 4.848 0 017.127 0l1.045 1.103c.345.342.9.342 1.245 0l1.046-1.102a4.848 4.848 0 017.126 0c2.017 2.16 2.032 5.5 0 7.646z"/></symbol><symbol viewBox="0 0 24 24" id="hide-passw" xmlns="http://www.w3.org/2000/svg"><path d="M12 18.75c-6.094 0-10.89-6.03-11.09-6.287a.75.75 0 010-.926C1.11 11.281 5.906 5.25 12 5.25c6.095 0 10.89 6.03 11.09 6.287a.75.75 0 010 .926c-.2.256-4.995 6.287-11.09 6.287zM2.485 12c1.214 1.36 5.071 5.25 9.515 5.25 4.444 0 8.301-3.89 9.515-5.25-1.214-1.36-5.071-5.25-9.515-5.25-4.444 0-8.301 3.89-9.515 5.25z"/><path d="M12 15.75a3.75 3.75 0 110-7.5 3.75 3.75 0 010 7.5zm0-6a2.25 2.25 0 100 4.5 2.25 2.25 0 000-4.5zM.273 3.581l23 15"/></symbol><symbol viewBox="0 0 24 24" id="insta" xmlns="http://www.w3.org/2000/svg"><path d="M17.42 0H6.58A6.587 6.587 0 000 6.58v10.84A6.587 6.587 0 006.58 24h10.84A6.587 6.587 0 0024 17.42V6.58A6.587 6.587 0 0017.42 0zm5.163 17.42a5.168 5.168 0 01-5.162 5.163H6.579a5.168 5.168 0 01-5.162-5.162V6.579A5.168 5.168 0 016.58 1.417h10.842a5.168 5.168 0 015.162 5.162v10.842z"/><path d="M12 5.417A6.59 6.59 0 005.419 12a6.59 6.59 0 006.583 6.583A6.59 6.59 0 0018.583 12a6.59 6.59 0 00-6.582-6.583zm0 11.748A5.171 5.171 0 016.836 12a5.171 5.171 0 015.166-5.166A5.171 5.171 0 0117.166 12a5.171 5.171 0 01-5.165 5.165zm6.977-14.141c-1.103 0-2 .897-2 2 0 1.102.897 2 2 2 1.102 0 2-.898 2-2 0-1.103-.898-2-2-2zm0 2.582a.583.583 0 110-1.166.583.583 0 010 1.166z"/></symbol><symbol viewBox="0 0 24 24" id="login" xmlns="http://www.w3.org/2000/svg"><path d="M2 5.556V2h20v20H2v-3.556"/><path d="M5.001 9l-3 3 3 3M2 12h10"/></symbol><symbol viewBox="0 0 20 20" id="place" xmlns="http://www.w3.org/2000/svg"><path d="M10 0C5.22 0 1.332 3.731 1.332 8.318c0 6.224 7.953 11.357 8.292 11.572a.698.698 0 00.752 0c.34-.215 8.293-5.348 8.293-11.572C18.669 3.73 14.78 0 10 0zm0 18.453C8.46 17.38 2.734 13.07 2.734 8.318c0-3.814 3.26-6.916 7.266-6.916 4.007 0 7.267 3.102 7.267 6.916 0 4.745-5.728 9.062-7.267 10.135z"/><path d="M10 3.809a3.953 3.953 0 00-3.95 3.948A3.953 3.953 0 0010 11.706a3.953 3.953 0 003.948-3.949A3.953 3.953 0 009.999 3.81zm0 6.494a2.55 2.55 0 01-2.547-2.546A2.55 2.55 0 019.999 5.21a2.55 2.55 0 012.547 2.547A2.55 2.55 0 0110 10.303z"/></symbol><symbol viewBox="0 0 140 154" id="play" xmlns="http://www.w3.org/2000/svg"><circle cx="70" cy="77" r="69.5"/><path d="M70 0l2.828 5.172L78 8l-5.172 2.828L70 16l-2.828-5.172L62 8l5.172-2.828L70 0zm0 138l2.828 5.172L78 146l-5.172 2.828L70 154l-2.828-5.172L62 146l5.172-2.828L70 138zm8-61l-12 6.928V70.072L78 77z"/></symbol><symbol viewBox="0 0 10 10" id="plus" xmlns="http://www.w3.org/2000/svg"><path d="M10 5.714H5.714V10H4.286V5.714H0V4.286h4.286V0h1.428v4.286H10v1.428z"/></symbol><symbol viewBox="0 0 14 14" id="popup-close" xmlns="http://www.w3.org/2000/svg"><path d="M14 1.41L12.59 0 7 5.59 1.41 0 0 1.41 5.59 7 0 12.59 1.41 14 7 8.41 12.59 14 14 12.59 8.41 7 14 1.41z"/></symbol><symbol viewBox="0 0 50 50" id="popup-success" xmlns="http://www.w3.org/2000/svg"><path d="M25 0C11.182 0 0 11.181 0 25a24.81 24.81 0 004.213 13.89L.76 47.199c-.532 1.281.756 2.574 2.04 2.04l8.308-3.45A24.813 24.813 0 0025 50c13.817 0 25-11.181 25-25C50 11.183 38.819 0 25 0zm0 46.878a21.72 21.72 0 01-12.788-4.125 1.561 1.561 0 00-1.512-.176l-5.606 2.33L7.423 39.3a1.56 1.56 0 00-.176-1.512A21.719 21.719 0 013.122 25C3.122 12.936 12.936 3.122 25 3.122S46.878 12.936 46.878 25 37.064 46.878 25 46.878z"/><path d="M31.673 15.089l-9.602 9.601-2.978-2.978a4.68 4.68 0 00-6.622 0 4.688 4.688 0 000 6.622l6.289 6.29a4.68 4.68 0 006.622 0L38.295 21.71a4.688 4.688 0 000-6.622 4.68 4.68 0 00-6.622 0zm4.415 4.414L23.175 32.416a1.56 1.56 0 01-2.207 0l-6.29-6.289a1.56 1.56 0 112.208-2.207l4.082 4.082a1.561 1.561 0 002.207 0L33.88 17.296a1.56 1.56 0 112.208 2.207z"/></symbol><symbol viewBox="0 0 80 58" id="quote" xmlns="http://www.w3.org/2000/svg"><path d="M17.74.765C7.958.765 0 8.722 0 18.505c0 9.437 7.406 17.178 16.711 17.712.162 1.74.04 6.475-4.497 13.062a1.25 1.25 0 00.146 1.593 548.076 548.076 0 013.807 3.844c1.051 1.07 1.53 1.558 2.233 2.195a1.246 1.246 0 001.66.018c7.906-6.88 16.69-21.095 15.418-38.514C34.734 8.188 27.274.765 17.74.765zm1.512 53.513c-.34-.336-.73-.731-1.302-1.314a508.63 508.63 0 00-3.098-3.133c5.507-8.485 4.467-14.53 4.011-15.396a1.295 1.295 0 00-1.123-.688c-8.403 0-15.24-6.837-15.24-15.242 0-8.403 6.837-15.24 15.24-15.24 8.187 0 14.598 6.447 15.246 15.33C34.414 38.188 22.77 50.91 19.252 54.278zm60.624-35.863v-.002C79.127 8.188 71.666.765 62.136.765c-9.783 0-17.742 7.957-17.742 17.74 0 9.437 7.408 17.178 16.714 17.712.162 1.739.04 6.471-4.5 13.062a1.25 1.25 0 00.146 1.593c1.85 1.85 2.995 3.016 3.798 3.833 1.056 1.077 1.538 1.567 2.243 2.207a1.253 1.253 0 001.66.016c7.907-6.88 16.69-21.095 15.42-38.513zM63.647 54.278c-.343-.338-.734-.736-1.312-1.325-.696-.708-1.647-1.677-3.088-3.122 5.506-8.487 4.468-14.53 4.014-15.396a1.299 1.299 0 00-1.125-.688c-8.404 0-15.242-6.837-15.242-15.242 0-8.403 6.838-15.24 15.242-15.24 8.185 0 14.597 6.447 15.247 15.332v-.002c1.427 19.59-10.218 32.314-13.736 35.683z"/></symbol><symbol viewBox="0 0 24 24" id="show-passw" xmlns="http://www.w3.org/2000/svg"><path d="M12 18.75c-6.094 0-10.89-6.03-11.09-6.287a.75.75 0 010-.926C1.11 11.281 5.906 5.25 12 5.25c6.095 0 10.89 6.03 11.09 6.287a.75.75 0 010 .926c-.2.256-4.995 6.287-11.09 6.287zM2.485 12c1.214 1.36 5.071 5.25 9.515 5.25 4.444 0 8.301-3.89 9.515-5.25-1.214-1.36-5.071-5.25-9.515-5.25-4.444 0-8.301 3.89-9.515 5.25z"/><path d="M12 15.75a3.75 3.75 0 110-7.5 3.75 3.75 0 010 7.5zm0-6a2.25 2.25 0 100 4.5 2.25 2.25 0 000-4.5z"/></symbol><symbol viewBox="0 0 24 24" id="user" xmlns="http://www.w3.org/2000/svg"><path d="M12 13.518C4.79 13.518.819 16.93.819 23.124c0 .484.392.876.876.876h20.613a.876.876 0 00.876-.876c0-6.194-3.971-9.606-11.182-9.606zm-9.398 8.73c.345-4.631 3.502-6.978 9.399-6.978 5.897 0 9.054 2.347 9.399 6.978H2.602zM12 0C8.687 0 6.19 2.548 6.19 5.927c0 3.477 2.606 6.306 5.81 6.306 3.203 0 5.81-2.829 5.81-6.306C17.81 2.548 15.312 0 12 0zm0 10.482c-2.238 0-4.059-2.043-4.059-4.555 0-2.42 1.707-4.175 4.059-4.175 2.313 0 4.058 1.795 4.058 4.175 0 2.512-1.82 4.555-4.058 4.555z"/></symbol><symbol viewBox="0 0 24 24" id="vk" xmlns="http://www.w3.org/2000/svg"><g clip-path="url(#tclip0_1700_7464)"><path d="M23.88 19.085l-.826-1.942c-.72-1.72-1.672-3.21-2.834-4.436 1.527-1.222 3.06-3.35 3.06-6.972V4.329c0-.825-.672-1.496-1.498-1.496h-2.81c-.826 0-1.498.671-1.498 1.496v1.406c0 1.045-.193 1.724-.628 2.201-.304.335-.755.6-1.345.791V3.541a.709.709 0 00-.708-.708H9.529a1.913 1.913 0 00-1.911 1.91c0 .89.604 1.654 1.469 1.86l.23.055c.223.053.38.25.38.48v7.28a7.498 7.498 0 01-1.736-1.69c-1.39-1.851-2.156-4.335-2.156-6.993V4.329c0-.825-.672-1.496-1.497-1.496H1.497C.67 2.833 0 3.504 0 4.329v1.406c0 3.987 1.224 7.764 3.447 10.637 2.394 3.092 5.644 4.796 9.152 4.796h1.405c.826 0 1.497-.672 1.497-1.497v-3.448c.909.782 1.646 1.842 2.198 3.162l.361.863c.234.559.776.92 1.381.92h3.061a1.496 1.496 0 001.378-2.083zm-1.311.63c-.024.035-.055.035-.067.035h-3.06a.08.08 0 01-.074-.048l-.361-.864c-.786-1.878-1.916-3.318-3.357-4.28a7.313 7.313 0 00-.513-.311.708.708 0 00-1.053.62v4.804a.08.08 0 01-.08.08H12.6c-3.06 0-5.912-1.509-8.031-4.247-2.032-2.625-3.15-6.095-3.15-9.769V4.329a.08.08 0 01.079-.08h2.811a.08.08 0 01.08.08v1.406c0 2.964.866 5.75 2.44 7.844.928 1.235 2.069 2.165 3.3 2.689a.709.709 0 00.986-.652V7.138c0-.889-.604-1.654-1.469-1.86l-.23-.054a.494.494 0 01.114-.974h4.555v5.38a.709.709 0 00.836.698c1.325-.241 2.326-.725 2.974-1.438.69-.758.998-1.73.998-3.155V4.329a.08.08 0 01.08-.08h2.81a.08.08 0 01.08.08v1.406c0 3.55-1.696 5.38-3.12 6.29a.708.708 0 00-.097 1.118c1.294 1.191 2.338 2.722 3.102 4.549l.002.004.827 1.944c.004.01.016.039-.007.075z"/></g><defs><clipPath id="tclip0_1700_7464"><path d="M0 0h24v24H0z"/></clipPath></defs></symbol><symbol viewBox="0 0 20 20" id="whatsapp" xmlns="http://www.w3.org/2000/svg"><g clip-path="url(#uclip0_1700_7436)"><path d="M15.005 12.04l-1.06-1.06a1.372 1.372 0 00-1.096-.397c-.407.037-.774.25-1.007.586l-.37.532c-.502-.09-1.473-.342-2.152-1.021-.68-.68-.932-1.652-1.022-2.153l.533-.37a1.372 1.372 0 00.189-2.103l-1.06-1.06a1.365 1.365 0 00-1.598-.253c-.93.482-1.54 1.384-1.718 2.54-.292 1.884.579 4.108 2.273 5.802 1.478 1.477 3.357 2.329 5.064 2.329.25 0 .497-.019.738-.056 1.156-.179 2.058-.79 2.54-1.718a1.365 1.365 0 00-.254-1.598zm-.825 1.04c-.383.737-1.107.992-1.647 1.076-1.486.23-3.353-.528-4.757-1.932-1.404-1.404-2.162-3.271-1.932-4.757.083-.54.338-1.265 1.076-1.647a.14.14 0 01.065-.015c.041 0 .083.017.115.048l1.06 1.06a.16.16 0 01.047.129.157.157 0 01-.069.118l-.837.58a.607.607 0 00-.26.54c.005.08.143 1.982 1.42 3.258 1.277 1.277 3.179 1.415 3.26 1.42a.608.608 0 00.538-.26l.58-.837a.157.157 0 01.119-.068.157.157 0 01.128.046l1.06 1.06c.05.05.063.124.034.18z"/><path d="M17.07 2.93A9.935 9.935 0 0010 0a9.935 9.935 0 00-7.072 2.929 10.026 10.026 0 00-2.87 5.983 10.05 10.05 0 001.305 6.134l-1.042 3.89a.607.607 0 00.744.743l3.889-1.042a10.047 10.047 0 006.134 1.305 10.026 10.026 0 005.983-2.87A9.935 9.935 0 0020 10a9.935 9.935 0 00-2.93-7.07zm-.858 13.283a8.745 8.745 0 01-10.845 1.255.608.608 0 00-.478-.071l-3.123.837.837-3.123a.608.608 0 00-.07-.478A8.745 8.745 0 013.786 3.788c3.426-3.426 9-3.426 12.425 0 3.426 3.425 3.426 9 0 12.425z"/></g><defs><clipPath id="uclip0_1700_7436"><path d="M0 0h20v20H0z"/></clipPath></defs></symbol></svg>