<?xml version="1.0" encoding="utf-8"?><svg xmlns="http://www.w3.org/2000/svg" xmlns:xlink="http://www.w3.org/1999/xlink"><symbol viewBox="0 0 24 24" id="basket" xmlns="http://www.w3.org/2000/svg"><path d="M21.92 22.997L20.46 6.734a.861.861 0 00-.858-.785h-3.011V4.591A4.596 4.596 0 0012 0a4.596 4.596 0 00-4.59 4.591v1.358H4.396a.861.861 0 00-.858.785L2.072 23.062A.861.861 0 002.93 24h18.14a.861.861 0 00.85-1.003zM9.134 4.591A2.871 2.871 0 0112 1.723a2.871 2.871 0 012.868 2.868v1.358H9.133V4.591zm-5.26 17.686l1.31-14.605H7.41v1.54a.861.861 0 101.723 0v-1.54h5.735v1.54a.861.861 0 101.723 0v-1.54h2.224l1.311 14.605H3.872z"/></symbol><symbol viewBox="0 0 24 24" id="heart" xmlns="http://www.w3.org/2000/svg"><path d="M22.037 2.946A6.574 6.574 0 0017.234.849a6.582 6.582 0 00-4.809 2.096l-.423.448-.424-.448a6.563 6.563 0 00-9.615 0 7.36 7.36 0 000 10.008l9.416 9.93a.858.858 0 001.245 0l9.413-9.93a7.36 7.36 0 000-10.007zm-1.24 8.826h-.002l-8.793 9.275-8.795-9.275a5.625 5.625 0 010-7.647 4.848 4.848 0 017.127 0l1.045 1.103c.345.342.9.342 1.245 0l1.046-1.102a4.848 4.848 0 017.126 0c2.017 2.16 2.032 5.5 0 7.646z"/></symbol><symbol viewBox="0 0 24 24" id="login" xmlns="http://www.w3.org/2000/svg"><path d="M2 5.556V2h20v20H2v-3.556"/><path d="M5.001 9l-3 3 3 3M2 12h10"/></symbol><symbol viewBox="0 0 24 24" id="user" xmlns="http://www.w3.org/2000/svg"><path d="M12 13.518C4.79 13.518.819 16.93.819 23.124c0 .484.392.876.876.876h20.613a.876.876 0 00.876-.876c0-6.194-3.971-9.606-11.182-9.606zm-9.398 8.73c.345-4.631 3.502-6.978 9.399-6.978 5.897 0 9.054 2.347 9.399 6.978H2.602zM12 0C8.687 0 6.19 2.548 6.19 5.927c0 3.477 2.606 6.306 5.81 6.306 3.203 0 5.81-2.829 5.81-6.306C17.81 2.548 15.312 0 12 0zm0 10.482c-2.238 0-4.059-2.043-4.059-4.555 0-2.42 1.707-4.175 4.059-4.175 2.313 0 4.058 1.795 4.058 4.175 0 2.512-1.82 4.555-4.058 4.555z"/></symbol></svg>