<svg width="176" height="30" viewBox="0 0 176 30" fill="none" xmlns="http://www.w3.org/2000/svg">
<path d="M0.342937 11.2571C0.342937 9.42786 0.308146 7.62768 0.233595 5.85662C0.164013 4.08555 0.0844914 2.31449 0 0.538574C0.735572 0.596801 1.49103 0.640471 2.25642 0.684141C3.02181 0.727811 3.77229 0.74722 4.51284 0.74722C5.24841 0.74722 6.00386 0.713254 6.76925 0.640471C7.53465 0.572539 8.28513 0.538574 9.02567 0.538574C10.2433 0.538574 11.3914 0.630767 12.4699 0.8103C13.5484 0.989832 14.4977 1.31008 15.3228 1.76619C16.1428 2.2223 16.7989 2.83853 17.281 3.61489C17.7631 4.39124 18.0066 5.36169 18.0066 6.52137C18.0066 8.56901 17.3456 10.1751 16.0285 11.3396C14.7114 12.5042 12.9868 13.3193 10.8596 13.79V13.8725C13.3844 13.9841 15.3774 14.5809 16.8386 15.6581C18.2998 16.7402 19.0304 18.4676 19.0304 20.85C19.0304 22.4027 18.7024 23.7031 18.0513 24.756C17.4003 25.809 16.5454 26.6581 15.4967 27.3132C14.448 27.9634 13.29 28.4195 12.0276 28.6815C10.7652 28.9435 9.50777 29.0745 8.26028 29.0745C7.57938 29.0745 6.89351 29.06 6.19769 29.0309C5.50188 29.0017 4.81601 28.9872 4.13511 28.9872C3.45421 28.9872 2.76834 28.9872 2.07253 28.9872C1.37671 28.9872 0.690842 29.0163 0.00994039 29.0697C0.0944318 27.2986 0.173954 25.5324 0.243535 23.771C0.313116 22.0145 0.352875 20.2192 0.352875 18.3948V11.2571H0.342937ZM6.12811 13.2902C7.12213 13.2902 8.1062 13.1932 9.08531 12.9991C10.0644 12.805 10.9342 12.4799 11.7045 12.0238C12.4699 11.5677 13.0862 10.9563 13.5534 10.1945C14.0206 9.43271 14.2542 8.47197 14.2542 7.30743C14.2542 6.17201 14.0405 5.26464 13.618 4.58533C13.1906 3.90602 12.6538 3.38198 12.0028 3.00836C11.3517 2.63474 10.6111 2.38727 9.79106 2.26111C8.971 2.13496 8.14597 2.07188 7.3259 2.07188C6.58536 2.07188 5.9641 2.09129 5.45218 2.13496C4.94026 2.17863 4.48799 2.22715 4.09038 2.28052C4.03074 3.61003 3.97607 4.92499 3.9214 6.22539C3.86672 7.52578 3.8369 8.84074 3.8369 10.1702V13.2854H6.12811V13.2902ZM3.83193 19.0644C3.83193 20.4764 3.86176 21.8738 3.91643 23.2616C3.9711 24.6444 4.03074 26.0467 4.08541 27.4587C4.62218 27.5121 5.26332 27.5606 5.99889 27.6043C6.73446 27.648 7.48495 27.6674 8.25531 27.6674C9.16483 27.6674 10.0346 27.517 10.8696 27.2113C11.7045 26.9056 12.4401 26.4592 13.0614 25.8624C13.6826 25.2655 14.1796 24.5328 14.5524 23.6594C14.9202 22.786 15.1041 21.7962 15.1041 20.6899C15.1041 19.5011 14.8854 18.5258 14.4431 17.7591C14.0007 16.9973 13.3745 16.4054 12.5495 15.9735C11.7294 15.5465 10.7403 15.2457 9.59226 15.0807C8.44417 14.9157 7.15692 14.8332 5.74045 14.8332H3.82696V19.0644H3.83193Z" fill="#319D50"/>
<path d="M26.3371 11.296C26.3371 9.46667 26.3023 7.6762 26.2277 5.91484C26.1582 4.15834 26.0786 2.36301 25.9941 0.533722C26.8192 0.591949 27.6243 0.635618 28.4195 0.679288C29.2148 0.722958 30.0199 0.742368 30.8449 0.742368C31.67 0.742368 32.4751 0.708402 33.2703 0.635618C34.0656 0.567687 34.8707 0.533722 35.6957 0.533722C36.8886 0.533722 38.0217 0.645322 39.1002 0.868525C40.1788 1.09173 41.1231 1.45564 41.9282 1.96998C42.7383 2.48432 43.3745 3.15392 43.8417 3.98365C44.3089 4.81339 44.5425 5.85176 44.5425 7.09879C44.5425 8.4283 44.2393 9.56857 43.628 10.5245C43.0167 11.4803 42.2761 12.2664 41.3964 12.8923C40.5167 13.5134 39.5724 13.9987 38.5684 14.348C37.5645 14.6974 36.645 14.9254 35.825 15.0322C36.1629 15.4495 36.6351 16.0269 37.2265 16.7741C37.8229 17.5214 38.4889 18.3463 39.2295 19.2439C39.965 20.1416 40.7354 21.0878 41.5257 22.0679C42.3209 23.0529 43.0863 23.9942 43.8218 24.8919C44.5574 25.7944 45.2532 26.6144 45.9093 27.3617C46.5603 28.1089 47.0872 28.6766 47.4848 29.0648C47.0573 29.0066 46.6349 28.9823 46.2075 28.9823C45.785 28.9823 45.3576 28.9823 44.9302 28.9823C44.5326 28.9823 44.12 28.9823 43.6976 28.9823C43.2701 28.9823 42.8626 29.0114 42.465 29.0648C42.0425 28.4826 41.3964 27.6092 40.5267 26.4495C39.6619 25.2849 38.7026 24.0428 37.654 22.7084C36.6053 21.3789 35.5317 20.0591 34.4433 18.7441C33.3499 17.4292 32.3509 16.3132 31.4463 15.4009H29.831V18.4336C29.831 20.2629 29.8658 22.0631 29.9354 23.8341C30.005 25.6052 30.0845 27.352 30.169 29.0697C29.5179 29.0114 28.8221 28.9872 28.0816 28.9872C27.346 28.9872 26.6502 29.0163 25.9941 29.0697C26.0786 27.352 26.1582 25.61 26.2277 23.8341C26.2973 22.0631 26.3371 20.2629 26.3371 18.4336V11.296ZM29.8261 13.6639C30.2237 13.7463 30.6561 13.8046 31.1233 13.8288C31.5905 13.8579 32.1073 13.8725 32.6739 13.8725C33.5536 13.8725 34.4681 13.7754 35.4174 13.5814C36.3667 13.3873 37.2414 13.0476 38.0367 12.5624C38.8319 12.0772 39.4879 11.427 40.0147 10.6118C40.5416 9.79662 40.805 8.7631 40.805 7.51608C40.805 6.43403 40.6012 5.54122 40.1887 4.83765C39.7762 4.12922 39.2444 3.57122 38.5933 3.15392C37.9422 2.73663 37.2315 2.4552 36.4661 2.29993C35.7007 2.14951 34.9453 2.07188 34.2097 2.07188C33.2157 2.07188 32.3956 2.09129 31.7445 2.13496C31.0934 2.17863 30.5368 2.22715 30.0845 2.28052C30.0249 3.80412 29.9702 5.31317 29.9155 6.80765C29.8609 8.30214 29.831 9.79662 29.831 11.296V13.6639H29.8261Z" fill="#319D50"/>
<path d="M75.8188 29.0745C75.4212 29.0163 75.0484 28.9921 74.6906 28.9921C74.3327 28.9921 73.96 28.9921 73.5624 28.9921C73.1648 28.9921 72.7871 28.9921 72.4342 28.9921C72.0763 28.9921 71.7036 29.0212 71.306 29.0745C71.1072 28.4389 70.8388 27.6674 70.4958 26.7697C70.1579 25.8721 69.7802 24.9259 69.3676 23.9457C68.9551 22.9607 68.5376 21.966 68.1102 20.9568C67.6828 19.9475 67.2852 18.9819 66.9174 18.0697C66.0079 18.0406 65.0884 18.0212 64.154 18.0066C63.2147 17.9921 62.2803 17.9872 61.3459 17.9872C60.4662 17.9872 59.6014 17.9921 58.7515 18.0066C57.9017 18.0212 57.0369 18.0406 56.1572 18.0697C55.2476 20.2289 54.4276 22.2863 53.687 24.2369C52.9465 26.1875 52.3948 27.8033 52.027 29.0745C51.5449 29.0163 51.0181 28.9921 50.4515 28.9921C49.8849 28.9921 49.3581 29.0212 48.876 29.0745C51.1722 24.2272 53.4137 19.4089 55.5955 14.6198C57.7824 9.83061 59.9791 4.95412 62.1908 0H63.001C63.6819 1.60609 64.4174 3.34318 65.2126 5.21129C66.0079 7.0794 66.813 8.97177 67.638 10.8835C68.4581 12.7953 69.2831 14.6925 70.1032 16.5752C70.9282 18.4579 71.6986 20.2095 72.4242 21.8302C73.1499 23.4508 73.801 24.8968 74.3825 26.1729C74.9739 27.4393 75.451 28.4098 75.8188 29.0745ZM56.9722 16.1579C57.7078 16.1579 58.4782 16.1725 59.2684 16.2016C60.0636 16.2307 60.829 16.2453 61.5646 16.2453C62.3598 16.2453 63.155 16.2404 63.9453 16.2258C64.7405 16.2113 65.5357 16.1919 66.3309 16.1628L61.6093 5.61403L56.9722 16.1579Z" fill="#319D50"/>
<path d="M106.354 28.6718C106.598 28.7203 106.613 29.0309 106.369 29.0746C104.018 29.4773 98.6804 29.8364 96.414 29.1231C91.1706 27.4733 92.1099 24.5426 90.0275 19.5157C87.0454 12.315 83.0793 10.1848 83.0793 10.1848C83.0793 10.1848 83.0495 13.8968 83.0495 15.202C83.0495 15.7843 83.0644 16.5121 83.0793 17.3564C83.0942 18.2201 83.1091 19.1275 83.1091 20.064C83.124 21.0004 83.1588 21.9563 83.1737 22.9268C83.2036 23.8972 83.2383 24.8046 83.2682 25.6343C83.298 26.4641 83.3179 27.187 83.3477 27.8033C83.3775 28.4341 83.4123 28.8514 83.4421 29.0794C82.9849 29.0163 82.4829 28.9872 81.9461 28.9872C81.3795 28.9872 80.8577 29.0163 80.3706 29.0794C80.4352 28.8028 80.4949 28.2933 80.5595 27.5413C80.639 26.7892 80.7036 25.8963 80.7632 24.8628C80.8129 23.8147 80.8726 22.6939 80.9521 21.476C81.0167 20.2629 81.0764 19.0304 81.1261 17.8125C81.1559 16.5995 81.2056 15.4107 81.2205 14.2413C81.2503 13.0719 81.2702 12.3489 81.2702 11.427V11.3639C81.2702 10.1703 81.1012 8.96693 80.5992 7.88003C80.3656 7.37055 80.2314 6.80769 80.2314 6.21572C80.2314 5.24527 80.5793 4.35246 81.1608 3.66344C81.2702 3.50817 81.4143 3.37231 81.5535 3.24615C82.5028 4.24086 87.2641 9.08338 90.6935 15.794C96.0612 26.3039 104.794 28.3613 106.354 28.6718Z" fill="#319D50"/>
<path d="M113.407 11.296C113.407 9.46667 113.373 7.6762 113.298 5.91484C113.228 4.15834 113.149 2.36301 113.064 0.533722C114.143 0.591949 115.216 0.635618 116.275 0.679288C117.339 0.722958 118.407 0.742368 119.486 0.742368C120.564 0.742368 121.633 0.708402 122.696 0.635618C123.76 0.567687 124.829 0.533722 125.907 0.533722C128.402 0.533722 130.539 0.853968 132.309 1.48961C134.083 2.12525 135.534 3.03262 136.667 4.21171C137.801 5.3908 138.631 6.82706 139.157 8.53019C139.684 10.2333 139.948 12.15 139.948 14.2849C139.948 17.0556 139.461 19.3895 138.481 21.2867C137.502 23.1839 136.255 24.7124 134.739 25.8769C133.223 27.0414 131.548 27.8615 129.719 28.3467C127.89 28.8319 126.136 29.0745 124.466 29.0745C123.502 29.0745 122.552 29.06 121.618 29.0309C120.679 29.0017 119.729 28.9872 118.765 28.9872C117.801 28.9872 116.852 28.9872 115.917 28.9872C114.978 28.9872 114.029 29.0163 113.064 29.0697C113.149 27.352 113.228 25.61 113.298 23.8341C113.368 22.0631 113.407 20.2629 113.407 18.4336V11.296ZM116.896 18.4433C116.896 21.4323 116.981 24.3679 117.15 27.2501C117.746 27.3859 118.551 27.4927 119.575 27.5606C120.599 27.6286 121.648 27.6674 122.721 27.6674C124.282 27.6674 125.843 27.4878 127.403 27.1288C128.964 26.7697 130.36 26.0904 131.593 25.0908C132.826 24.0961 133.834 22.7327 134.615 21.0004C135.395 19.2682 135.783 17.0313 135.783 14.2898C135.783 11.8831 135.48 9.90337 134.868 8.35066C134.257 6.79795 133.422 5.57519 132.358 4.67267C131.295 3.77501 130.022 3.14907 128.551 2.80456C127.075 2.46006 125.46 2.28537 123.7 2.28537C122.423 2.28537 121.235 2.32905 120.127 2.41153C119.019 2.49402 118.03 2.59106 117.15 2.70267C117.065 4.03218 117.001 5.42477 116.956 6.87558C116.911 8.33125 116.891 9.80148 116.891 11.3008V18.4433H116.896Z" fill="#319D50"/>
<path d="M144.127 14.8672C144.127 12.5139 144.515 10.4177 145.3 8.57388C146.08 6.73489 147.174 5.17247 148.575 3.90119C149.982 2.62991 151.662 1.65946 153.62 0.994706C155.578 0.329951 157.72 0 160.046 0C162.397 0 164.554 0.334803 166.512 0.994706C168.47 1.65946 170.15 2.62991 171.552 3.90119C172.958 5.17733 174.047 6.73489 174.827 8.57388C175.607 10.4177 176 12.5139 176 14.8672C176 17.2206 175.607 19.3216 174.827 21.1606C174.047 23.0044 172.953 24.562 171.552 25.8333C170.15 27.1094 168.47 28.0556 166.512 28.6767C164.554 29.2977 162.397 29.6131 160.046 29.6131C157.72 29.6131 155.578 29.3026 153.62 28.6767C151.662 28.0556 149.982 27.1045 148.575 25.8333C147.174 24.5571 146.08 23.0044 145.3 21.1606C144.515 19.3216 144.127 17.2206 144.127 14.8672ZM171.825 14.8672C171.825 12.5673 171.527 10.5827 170.931 8.90869C170.334 7.23467 169.504 5.84693 168.441 4.75518C167.377 3.66343 166.13 2.85311 164.698 2.32422C163.267 1.80018 161.711 1.5333 160.041 1.5333C158.396 1.5333 156.855 1.79532 155.424 2.32422C153.993 2.85311 152.745 3.65858 151.681 4.75518C150.618 5.84693 149.788 7.23467 149.191 8.90869C148.595 10.5827 148.297 12.5721 148.297 14.8672C148.297 17.1672 148.595 19.1517 149.191 20.8258C149.788 22.4998 150.618 23.8875 151.681 24.9793C152.745 26.0759 153.993 26.8813 155.424 27.4102C156.855 27.9343 158.396 28.2011 160.041 28.2011C161.716 28.2011 163.267 27.9391 164.698 27.4102C166.13 26.8862 167.377 26.0759 168.441 24.9793C169.504 23.8875 170.334 22.4998 170.931 20.8258C171.527 19.1566 171.825 17.1672 171.825 14.8672Z" fill="#319D50"/>
<path d="M79.2323 0.965783C78.9887 0.917261 78.9738 0.606718 79.2174 0.563048C81.5682 0.160313 86.9061 -0.198751 89.1724 0.514526C94.4159 2.16428 93.4765 5.09503 95.559 10.1219C98.541 17.3226 102.507 19.4528 102.507 19.4528C102.507 19.4528 102.537 15.7408 102.537 14.4356C102.537 13.8533 102.522 13.1255 102.507 12.2812C102.492 11.4175 102.477 10.5101 102.477 9.57363C102.462 8.63715 102.428 7.68127 102.413 6.71082C102.383 5.74037 102.348 4.83301 102.318 4.00328C102.288 3.17355 102.269 2.45057 102.239 1.83433C102.209 1.20354 102.174 0.786251 102.144 0.558196C102.602 0.621275 103.104 0.650388 103.64 0.650388C104.207 0.650388 104.729 0.621275 105.216 0.558196C105.151 0.834773 105.092 1.34426 105.027 2.09635C104.947 2.84845 104.883 3.74126 104.823 4.77478C104.774 5.82286 104.714 6.94373 104.634 8.16163C104.57 9.37469 104.51 10.6072 104.46 11.8251C104.431 13.0381 104.381 14.2269 104.366 15.3963C104.336 16.5657 104.316 17.2887 104.316 18.2106V18.2737C104.316 19.4673 104.485 20.6707 104.987 21.7576C105.221 22.2671 105.355 22.8299 105.355 23.4219C105.355 24.3923 105.007 25.2851 104.426 25.9742C104.316 26.1294 104.172 26.2653 104.033 26.3914C103.084 25.3967 98.3224 20.5542 94.893 13.8436C89.5253 3.33367 80.7879 1.28118 79.2323 0.965783Z" fill="#319D50"/>
</svg>
