<svg width="486" height="120" viewBox="0 0 486 120" fill="none" xmlns="http://www.w3.org/2000/svg">
<g clip-path="url(#clip0_1700_7407)">
<path d="M79.0558 113.506C77.4444 111.729 76.6387 109.516 76.6387 106.833C76.6387 104.184 77.4444 101.96 79.0558 100.183C80.6989 98.4054 82.7238 97.5 85.1409 97.5C87.5579 97.5 89.5616 98.4054 91.1941 100.183C92.8373 101.96 93.643 104.173 93.643 106.833C93.643 109.482 92.8373 111.729 91.1941 113.506C89.5616 115.283 87.5579 116.155 85.1409 116.155C82.7238 116.155 80.6989 115.283 79.0558 113.506ZM85.1409 115.026C87.2187 115.026 88.9467 114.255 90.3673 112.679C91.7878 111.103 92.4875 109.18 92.4875 106.833C92.4875 104.486 91.7772 102.552 90.3673 100.987C88.9467 99.4113 87.2187 98.6401 85.1409 98.6401C83.063 98.6401 81.3244 99.4113 79.9144 100.987C78.4939 102.552 77.7836 104.486 77.7836 106.833C77.7836 109.18 78.4939 111.103 79.9144 112.679C81.335 114.255 83.0736 115.026 85.1409 115.026Z" fill="white"/>
<path d="M98.043 115.853V97.8242H109.45V98.9308H99.1667V104.933H104.881C106.736 104.933 108.178 105.447 109.227 106.453C110.277 107.459 110.786 108.767 110.786 110.388C110.786 113.685 108.612 115.853 104.881 115.853H98.043ZM99.1667 114.747H104.785C107.892 114.747 109.641 113.171 109.641 110.388C109.641 107.638 107.839 106.04 104.785 106.04H99.1667V114.747Z" fill="white"/>
<path d="M114.41 115.82V114.68C114.951 114.914 115.534 115.015 116.149 115.015C117.707 115.015 118.64 113.808 119.743 111.203L119.838 110.969L112.873 97.813H114.166L120.421 109.683L125.595 97.813H126.845L120.538 112.053C119.191 115.071 117.993 116.144 116.308 116.144C115.608 116.155 114.972 116.054 114.41 115.82Z" fill="white"/>
<path d="M130.217 115.853V97.8242H137.394C140.394 97.8242 142.186 99.4673 142.186 102.172C142.186 104.151 141.401 105.436 139.811 106.04C142.26 106.431 143.723 108.253 143.723 110.857C143.723 113.875 141.677 115.853 138.231 115.853H130.217ZM131.341 114.747H138.062C140.892 114.747 142.504 113.305 142.504 110.756C142.504 108.208 140.892 106.766 138.062 106.766H131.341V114.747ZM131.341 105.727H137.256C139.705 105.727 141.094 104.486 141.094 102.329C141.094 100.171 139.705 98.9308 137.256 98.9308H131.341V105.727Z" fill="white"/>
<path d="M147.783 115.853V97.8242H148.907V104.911H154.547C156.423 104.911 157.865 105.425 158.914 106.431C159.964 107.437 160.473 108.744 160.473 110.365C160.473 113.685 158.278 115.853 154.536 115.853H147.783ZM148.907 114.747H154.473C157.579 114.747 159.36 113.148 159.36 110.365C159.36 107.616 157.579 106.017 154.473 106.017H148.907V114.747Z" fill="white"/>
<path d="M170.873 106.084C170.873 104.721 171.976 103.558 173.269 103.558C174.605 103.558 175.686 104.665 175.686 106.084C175.686 107.448 174.605 108.577 173.269 108.577C171.965 108.588 170.873 107.459 170.873 106.084Z" fill="white"/>
<path d="M189.064 113.528C187.431 111.751 186.594 109.538 186.594 106.833C186.594 104.128 187.421 101.915 189.064 100.16C190.696 98.3826 192.753 97.5107 195.191 97.5107C197.047 97.5107 198.69 97.9802 200.079 98.9303V100.216C198.584 99.165 196.972 98.6508 195.223 98.6508C193.124 98.6508 191.343 99.4221 189.901 100.998C188.46 102.541 187.749 104.497 187.749 106.844C187.749 109.191 188.46 111.147 189.901 112.712C191.343 114.254 193.124 115.026 195.255 115.026C197.28 115.026 199.018 114.411 200.481 113.148V114.456C199.061 115.584 197.312 116.155 195.202 116.155C192.764 116.155 190.707 115.283 189.064 113.528Z" fill="white"/>
<path d="M203.822 115.82V114.68C204.363 114.914 204.946 115.015 205.561 115.015C207.119 115.015 208.052 113.808 209.155 111.203L209.25 110.969L202.285 97.813H203.579L209.833 109.683L215.007 97.813H216.258L209.95 112.053C208.603 115.071 207.406 116.144 205.72 116.144C205.02 116.155 204.384 116.054 203.822 115.82Z" fill="white"/>
<path d="M219.637 115.853V97.8242H220.782L227.429 107.012L234.076 97.8242H235.168V115.853H234.044V99.6573L227.789 108.309H227.058L220.75 99.6573V115.853H219.637Z" fill="white"/>
<path d="M240.322 115.853V97.8242H241.446V105.783L250.139 97.8242H251.729L242.718 106.084L253.097 115.842H251.39L241.446 106.464V115.842H240.322V115.853Z" fill="white"/>
<path d="M255.918 115.853V97.8242H257.042V113.841L268.597 97.8242H269.625V115.853H268.502V99.7803L256.904 115.853H255.918Z" fill="white"/>
<path d="M281.295 106.084C281.295 104.721 282.397 103.558 283.691 103.558C285.037 103.558 286.108 104.665 286.108 106.084C286.108 107.448 285.037 108.577 283.691 108.577C282.397 108.588 281.295 107.459 281.295 106.084Z" fill="white"/>
<path d="M298.733 113.506C297.122 111.729 296.316 109.516 296.316 106.833C296.316 104.184 297.122 101.96 298.733 100.183C300.366 98.4054 302.401 97.5 304.819 97.5C307.236 97.5 309.239 98.4054 310.872 100.183C312.504 101.96 313.31 104.173 313.31 106.833C313.31 109.482 312.504 111.729 310.872 113.506C309.239 115.283 307.236 116.155 304.819 116.155C302.401 116.155 300.366 115.283 298.733 113.506ZM304.819 115.026C306.896 115.026 308.624 114.255 310.045 112.679C311.465 111.103 312.165 109.18 312.165 106.833C312.165 104.486 311.455 102.552 310.045 100.987C308.624 99.4113 306.896 98.6401 304.819 98.6401C302.741 98.6401 301.013 99.4113 299.592 100.987C298.172 102.552 297.461 104.486 297.461 106.833C297.461 109.18 298.172 111.103 299.592 112.679C301.002 114.255 302.741 115.026 304.819 115.026Z" fill="white"/>
<path d="M314.445 119.989V114.736H316.035C317.18 113.059 318.018 111.125 318.527 108.968C319.036 106.8 319.311 103.715 319.311 99.702V97.8242H329.298V114.747H331.98V120H330.909V115.853H315.516V120H314.445V119.989ZM328.174 114.747V98.9308H320.435V100.138C320.435 107.012 319.576 111.55 317.361 114.747H328.174Z" fill="white"/>
<path d="M335.383 115.853V97.8242H346.811V98.9308H336.507V105.604H345.03V106.71H336.507V114.747H347.203V115.853H335.383Z" fill="white"/>
<path d="M348.982 115.853L358.121 106.297L349.968 97.8242H351.453L359.266 105.984V97.8242H360.389V106.04L368.256 97.8242H369.75L361.566 106.297L370.726 115.853H369.188L360.4 106.688V115.853H359.276V106.71L350.53 115.853H348.982Z" fill="white"/>
<path d="M371.775 119.989V114.736H373.366C374.51 113.059 375.348 111.125 375.857 108.968C376.366 106.8 376.641 103.715 376.641 99.702V97.8242H386.628V114.747H389.31V120H388.239V115.853H372.846V120H371.775V119.989ZM385.504 114.747V98.9308H377.765V100.138C377.765 107.012 376.906 111.55 374.691 114.747H385.504Z" fill="white"/>
<path d="M390.953 115.853L398.724 97.7236H399.773L407.491 115.853H406.314L404.046 110.544H394.42L392.151 115.853H390.953ZM394.812 109.516H403.632L399.233 99.2661L394.812 109.516Z" fill="white"/>
<path d="M0.946974 31.3616C0.946974 26.2654 0.850903 21.2502 0.645039 16.3162C0.452901 11.3821 0.233312 6.44805 0 1.50049C2.03118 1.6627 4.11726 1.78436 6.23079 1.90603C8.34432 2.02769 10.4167 2.08176 12.4616 2.08176C14.4928 2.08176 16.5788 1.98713 18.6924 1.78436C20.8059 1.59511 22.8783 1.50049 24.9232 1.50049C28.2856 1.50049 31.4559 1.75733 34.434 2.25749C37.4122 2.75766 40.0335 3.64984 42.3117 4.92053C44.5762 6.19121 46.3878 7.90799 47.7191 10.0709C49.0503 12.2337 49.7228 14.9373 49.7228 18.1681C49.7228 23.8727 47.8975 28.3471 44.2606 31.5914C40.6237 34.8357 35.8614 37.1067 29.9874 38.418V38.6478C36.9593 38.9587 42.4627 40.6214 46.4976 43.6224C50.5325 46.6369 52.55 51.4493 52.55 58.0866C52.55 62.4123 51.6442 66.0351 49.8463 68.9685C48.0485 71.9019 45.6879 74.2676 42.7921 76.0925C39.8963 77.9039 36.6985 79.1746 33.2126 79.9045C29.7266 80.6345 26.2544 80.9995 22.8096 80.9995C20.9294 80.9995 19.0355 80.9589 17.1141 80.8778C15.1927 80.7967 13.2988 80.7562 11.4185 80.7562C9.53833 80.7562 7.64439 80.7562 5.723 80.7562C3.80161 80.7562 1.90767 80.8373 0.027449 80.986C0.260761 76.0519 0.48035 71.1314 0.672489 66.2244C0.864627 61.3309 0.974418 56.3293 0.974418 51.2465V31.3616H0.946974ZM16.922 37.0256C19.6668 37.0256 22.3842 36.7553 25.0879 36.2146C27.7915 35.6738 30.1933 34.7681 32.3205 33.4975C34.434 32.2268 36.1358 30.5235 37.4259 28.4012C38.716 26.2789 39.361 23.6023 39.361 20.358C39.361 17.1948 38.7709 14.667 37.6043 12.7745C36.4241 10.8819 34.9418 9.422 33.144 8.38112C31.3461 7.34024 29.3012 6.65082 27.0367 6.29936C24.7722 5.94789 22.494 5.77216 20.2295 5.77216C18.1846 5.77216 16.4691 5.82623 15.0555 5.94789C13.6419 6.06955 12.393 6.20473 11.295 6.35343C11.1303 10.0573 10.9794 13.7207 10.8284 17.3435C10.6774 20.9663 10.5951 24.6297 10.5951 28.3336V37.0121H16.922V37.0256ZM10.5814 53.112C10.5814 57.0457 10.6637 60.9389 10.8147 64.805C10.9656 68.6576 11.1303 72.5643 11.2813 76.498C12.7635 76.6467 14.5339 76.7819 16.5651 76.9036C18.5963 77.0252 20.6687 77.0793 22.7959 77.0793C25.3074 77.0793 27.7092 76.6602 30.0148 75.8086C32.3205 74.957 34.3517 73.7133 36.0672 72.0506C37.7827 70.3879 39.1552 68.3467 40.1845 65.9135C41.2001 63.4803 41.7079 60.7226 41.7079 57.6405C41.7079 54.3286 41.104 51.6115 39.8825 49.4757C38.6611 47.3533 36.9318 45.7042 34.6536 44.5011C32.3891 43.3115 29.658 42.4734 26.4877 42.0138C23.3174 41.5541 19.7629 41.3243 15.8515 41.3243H10.5676V53.112H10.5814Z" fill="white"/>
<path d="M72.7263 31.4696C72.7263 26.3733 72.6302 21.3852 72.4243 16.4782C72.2322 11.5847 72.0126 6.58308 71.7793 1.48682C74.0575 1.64903 76.2808 1.77069 78.4767 1.89235C80.6726 2.01402 82.8959 2.06809 85.1741 2.06809C87.4523 2.06809 89.6757 1.97346 91.8715 1.77069C94.0674 1.58144 96.2907 1.48682 98.5689 1.48682C101.863 1.48682 104.992 1.79773 107.97 2.41955C110.948 3.04138 113.556 4.05522 115.779 5.48813C118.016 6.92103 119.773 8.7865 121.063 11.0981C122.353 13.4096 122.998 16.3025 122.998 19.7766C122.998 23.4805 122.161 26.6572 120.473 29.3203C118.785 31.9833 116.74 34.1732 114.311 35.917C111.881 37.6473 109.274 38.9991 106.502 39.9724C103.729 40.9457 101.19 41.581 98.9258 41.8784C99.859 43.041 101.163 44.6496 102.796 46.7314C104.443 48.8131 106.282 51.1112 108.327 53.612C110.358 56.1128 112.485 58.7488 114.667 61.4794C116.863 64.2236 118.977 66.8461 121.008 69.3469C123.039 71.8612 124.961 74.1457 126.772 76.2275C128.57 78.3093 130.025 79.8909 131.123 80.9723C129.942 80.8101 128.776 80.7425 127.596 80.7425C126.429 80.7425 125.249 80.7425 124.069 80.7425C122.971 80.7425 121.831 80.7425 120.665 80.7425C119.485 80.7425 118.359 80.8236 117.261 80.9723C116.095 79.3502 114.311 76.9169 111.909 73.6861C109.521 70.4418 106.872 66.9812 103.976 63.2638C101.08 59.5599 98.1161 55.883 95.1105 52.2196C92.0911 48.5563 89.3326 45.4472 86.8348 42.9058H82.3744V51.3545C82.3744 56.4508 82.4705 61.4659 82.6626 66.4C82.8547 71.334 83.0743 76.2005 83.3076 80.9858C81.5098 80.8236 79.5884 80.756 77.5435 80.756C75.5123 80.756 73.5909 80.8371 71.7793 80.9858C72.0126 76.2005 72.2322 71.3475 72.4243 66.4C72.6165 61.4659 72.7263 56.4508 72.7263 51.3545V31.4696ZM82.3607 38.0664C83.4586 38.2962 84.6526 38.4584 85.9427 38.526C87.2328 38.6071 88.6601 38.6476 90.2246 38.6476C92.6538 38.6476 95.1791 38.3773 97.8004 37.8366C100.422 37.2958 102.837 36.3496 105.033 34.9978C107.229 33.646 109.041 31.8346 110.495 29.5636C111.95 27.2926 112.677 24.4132 112.677 20.9391C112.677 17.9246 112.115 15.4373 110.976 13.4772C109.837 11.5036 108.368 9.94904 106.57 8.7865C104.772 7.62396 102.81 6.83992 100.696 6.40735C98.5827 5.98829 96.4966 5.772 94.4654 5.772C91.7206 5.772 89.4561 5.82607 87.6582 5.94774C85.8603 6.0694 84.3232 6.20458 83.0743 6.35327C82.9096 10.5979 82.7587 14.802 82.6077 18.9655C82.4567 23.129 82.3744 27.2926 82.3744 31.4696V38.0664H82.3607Z" fill="white"/>
<path d="M209.364 80.9995C208.266 80.8373 207.237 80.7697 206.248 80.7697C205.26 80.7697 204.231 80.7697 203.133 80.7697C202.035 80.7697 200.992 80.7697 200.018 80.7697C199.029 80.7697 198 80.8508 196.902 80.9995C196.353 79.2286 195.612 77.0793 194.665 74.5785C193.732 72.0776 192.689 69.4416 191.55 66.711C190.411 63.9669 189.258 61.1957 188.078 58.384C186.897 55.5722 185.799 52.8822 184.784 50.3408C182.272 50.2597 179.733 50.2056 177.153 50.1651C174.559 50.1245 171.979 50.111 169.399 50.111C166.97 50.111 164.582 50.1245 162.235 50.1651C159.888 50.2056 157.5 50.2597 155.071 50.3408C152.559 56.3563 150.295 62.0879 148.25 67.5221C146.205 72.9563 144.682 77.4578 143.666 80.9995C142.335 80.8373 140.88 80.7697 139.315 80.7697C137.751 80.7697 136.296 80.8508 134.965 80.9995C141.305 67.4951 147.495 54.0717 153.52 40.7295C159.559 27.3873 165.625 13.8018 171.732 0H173.969C175.849 4.47444 177.88 9.31386 180.076 14.5183C182.272 19.7227 184.496 24.9947 186.774 30.3207C189.038 35.6468 191.316 40.9323 193.581 46.1773C195.859 51.4222 197.986 56.3022 199.99 60.8172C201.994 65.3322 203.792 69.3605 205.397 72.9158C207.031 76.4439 208.348 79.1475 209.364 80.9995ZM157.322 45.0147C159.353 45.0147 161.48 45.0553 163.662 45.1364C165.858 45.2175 167.972 45.2581 170.003 45.2581C172.199 45.2581 174.394 45.2445 176.577 45.204C178.773 45.1634 180.968 45.1094 183.164 45.0282L170.126 15.6403L157.322 45.0147Z" fill="white"/>
<path d="M293.683 79.8777C294.356 80.0129 294.397 80.878 293.725 80.9997C287.233 82.1217 272.493 83.122 266.235 81.1348C251.756 76.5388 254.35 68.3739 248.599 54.3693C240.365 34.3087 229.413 28.3743 229.413 28.3743C229.413 28.3743 229.33 38.7156 229.33 42.3519C229.33 43.974 229.372 46.0017 229.413 48.3539C229.454 50.7601 229.495 53.2879 229.495 55.8969C229.536 58.5058 229.632 61.1689 229.674 63.8724C229.756 66.576 229.852 69.1039 229.934 71.4155C230.017 73.727 230.072 75.7412 230.154 77.458C230.236 79.2153 230.332 80.3778 230.415 81.0132C229.152 80.8375 227.766 80.7563 226.284 80.7563C224.719 80.7563 223.278 80.8375 221.933 81.0132C222.112 80.2427 222.276 78.8233 222.455 76.728C222.674 74.6327 222.853 72.1454 223.017 69.2661C223.155 66.3462 223.319 63.2236 223.539 59.8306C223.717 56.4511 223.882 53.0175 224.019 49.6245C224.102 46.2451 224.239 42.9332 224.28 39.6753C224.362 36.4175 224.417 34.4033 224.417 31.8349V31.6592C224.417 28.3338 223.951 24.9813 222.564 21.9533C221.919 20.5339 221.549 18.9659 221.549 17.3167C221.549 14.6131 222.51 12.1258 224.115 10.2062C224.417 9.77367 224.815 9.39517 225.199 9.0437C227.821 11.8149 240.969 25.3058 250.438 44.0011C265.26 73.2809 289.374 79.0125 293.683 79.8777Z" fill="white"/>
<path d="M313.158 31.4696C313.158 26.3733 313.062 21.3852 312.856 16.4782C312.664 11.5847 312.444 6.58308 312.211 1.48682C315.189 1.64903 318.154 1.77069 321.077 1.89235C324.014 2.01402 326.964 2.06809 329.943 2.06809C332.921 2.06809 335.872 1.97346 338.808 1.77069C341.745 1.58144 344.696 1.48682 347.674 1.48682C354.564 1.48682 360.465 2.379 365.351 4.14985C370.251 5.9207 374.258 8.44855 377.387 11.7334C380.516 15.0183 382.808 19.0196 384.263 23.7644C385.718 28.5092 386.445 33.8488 386.445 39.7967C386.445 47.5154 385.1 54.0175 382.397 59.303C379.693 64.5886 376.248 68.8467 372.062 72.091C367.876 75.3353 363.251 77.6198 358.201 78.9716C353.15 80.3234 348.306 80.9993 343.694 80.9993C341.032 80.9993 338.41 80.9588 335.83 80.8777C333.236 80.7966 330.615 80.756 327.953 80.756C325.29 80.756 322.669 80.756 320.089 80.756C317.495 80.756 314.873 80.8371 312.211 80.9858C312.444 76.2005 312.664 71.3475 312.856 66.4C313.048 61.4659 313.158 56.4507 313.158 51.3545V31.4696ZM322.792 51.3815C322.792 59.7086 323.026 67.8869 323.492 75.9166C325.139 76.2951 327.362 76.5925 330.19 76.7817C333.017 76.971 335.913 77.0791 338.877 77.0791C343.186 77.0791 347.496 76.579 351.805 75.5786C356.115 74.5783 359.971 72.6858 363.375 69.9011C366.778 67.1299 369.564 63.3314 371.719 58.5055C373.874 53.6796 374.944 47.4478 374.944 39.8102C374.944 33.1053 374.107 27.59 372.419 23.2642C370.731 18.9385 368.425 15.532 365.488 13.0176C362.551 10.5168 359.038 8.77299 354.976 7.81321C350.9 6.85344 346.439 6.36679 341.581 6.36679C338.054 6.36679 334.774 6.48845 331.713 6.71826C328.653 6.94806 325.921 7.21842 323.492 7.52933C323.259 11.2332 323.081 15.1129 322.957 19.1548C322.833 23.2101 322.779 27.3061 322.779 31.4831V51.3815H322.792Z" fill="white"/>
<path d="M397.986 41.419C397.986 34.8628 399.057 29.023 401.225 23.8862C403.38 18.7629 406.399 14.4101 410.269 10.8684C414.153 7.32672 418.792 4.62313 424.2 2.77118C429.607 0.919219 435.522 0 441.945 0C448.437 0 454.393 0.932737 459.8 2.77118C465.208 4.62313 469.846 7.32672 473.717 10.8684C477.601 14.4236 480.606 18.7629 482.761 23.8862C484.916 29.023 486 34.8628 486 41.419C486 47.9752 484.916 53.8284 482.761 58.9517C480.606 64.0885 477.587 68.4278 473.717 71.9695C469.846 75.5247 465.208 78.1607 459.8 79.891C454.393 81.6213 448.437 82.5 441.945 82.5C435.522 82.5 429.607 81.6348 424.2 79.891C418.792 78.1607 414.153 75.5112 410.269 71.9695C406.399 68.4143 403.38 64.0885 401.225 58.9517C399.057 53.8284 397.986 47.9752 397.986 41.419ZM474.471 41.419C474.471 35.0115 473.648 29.4826 472.001 24.8189C470.354 20.1552 468.062 16.2891 465.125 13.2476C462.188 10.206 458.743 7.94855 454.791 6.47509C450.838 5.01516 446.543 4.27167 441.931 4.27167C437.389 4.27167 433.134 5.00164 429.181 6.47509C425.229 7.94855 421.784 10.1925 418.847 13.2476C415.91 16.2891 413.618 20.1552 411.971 24.8189C410.324 29.4826 409.501 35.025 409.501 41.419C409.501 47.8265 410.324 53.3553 411.971 58.019C413.618 62.6827 415.91 66.5488 418.847 69.5903C421.784 72.6454 425.229 74.8894 429.181 76.3628C433.134 77.8228 437.389 78.5663 441.931 78.5663C446.556 78.5663 450.838 77.8363 454.791 76.3628C458.743 74.9029 462.188 72.6454 465.125 69.5903C468.062 66.5488 470.354 62.6827 472.001 58.019C473.648 53.3688 474.471 47.8265 474.471 41.419Z" fill="white"/>
<path d="M218.791 2.69053C218.119 2.55535 218.077 1.6902 218.75 1.56854C225.241 0.446551 239.981 -0.553774 246.239 1.43336C260.718 6.02946 258.125 14.1943 263.875 28.1989C272.11 48.2595 283.062 54.1939 283.062 54.1939C283.062 54.1939 283.144 43.8526 283.144 40.2163C283.144 38.5942 283.103 36.5665 283.062 34.2144C283.02 31.8082 282.979 29.2803 282.979 26.6713C282.938 24.0624 282.842 21.3994 282.801 18.6958C282.718 15.9922 282.622 13.4643 282.54 11.1528C282.458 8.84119 282.403 6.82702 282.32 5.11024C282.238 3.35291 282.142 2.19037 282.06 1.55502C283.322 1.73076 284.708 1.81186 286.191 1.81186C287.755 1.81186 289.196 1.73076 290.541 1.55502C290.363 2.32555 290.198 3.74493 290.02 5.84021C289.8 7.93549 289.622 10.4228 289.457 13.3021C289.32 16.222 289.155 19.3446 288.935 22.7376C288.757 26.1171 288.592 29.5507 288.455 32.9437C288.373 36.3232 288.236 39.6351 288.194 42.8929C288.112 46.1507 288.057 48.1649 288.057 50.7333V50.909C288.057 54.2344 288.524 57.5869 289.91 60.6149C290.555 62.0343 290.925 63.6023 290.925 65.2515C290.925 67.9551 289.965 70.4424 288.359 72.362C288.057 72.7945 287.659 73.173 287.275 73.5245C284.654 70.7533 271.506 57.2624 262.036 38.5671C247.214 9.28728 223.087 3.5692 218.791 2.69053Z" fill="white"/>
</g>
<defs>
<clipPath id="clip0_1700_7407">
<rect width="486" height="120" fill="white"/>
</clipPath>
</defs>
</svg>
