<svg width="210" height="36" viewBox="0 0 210 36" fill="none" xmlns="http://www.w3.org/2000/svg">
<path d="M0.409186 13.5086C0.409186 11.3134 0.367674 9.15323 0.278721 7.02795C0.195698 4.90268 0.100814 2.7774 0 0.646301C0.877671 0.716173 1.77906 0.768577 2.69232 0.820981C3.60557 0.873385 4.50103 0.896676 5.38463 0.896676C6.26231 0.896676 7.1637 0.855917 8.07695 0.768577C8.9902 0.687059 9.88566 0.646301 10.7693 0.646301C12.2222 0.646301 13.592 0.756933 14.8789 0.972372C16.1658 1.18781 17.2984 1.57211 18.2828 2.11944C19.2613 2.66677 20.0441 3.40625 20.6194 4.33788C21.1946 5.2695 21.4852 6.43404 21.4852 7.82566C21.4852 10.2828 20.6964 12.2101 19.1249 13.6076C17.5534 15.005 15.4956 15.9832 12.9575 16.548V16.647C15.9701 16.7809 18.3481 17.4971 20.0916 18.7898C21.835 20.0882 22.7068 22.1611 22.7068 25.02C22.7068 26.8833 22.3154 28.4437 21.5385 29.7073C20.7617 30.9708 19.7417 31.9898 18.4904 32.7758C17.2391 33.5561 15.8574 34.1034 14.3511 34.4178C12.8448 34.7322 11.3445 34.8894 9.85601 34.8894C9.04357 34.8894 8.22521 34.872 7.39498 34.837C6.56475 34.8021 5.74638 34.7846 4.93394 34.7846C4.1215 34.7846 3.30313 34.7846 2.4729 34.7846C1.64267 34.7846 0.8243 34.8196 0.0118607 34.8836C0.112674 32.7584 0.207558 30.6389 0.290581 28.5253C0.373604 26.4175 0.421045 24.2631 0.421045 22.0737V13.5086H0.409186ZM7.31195 15.9483C8.498 15.9483 9.67218 15.8318 10.8404 15.5989C12.0087 15.366 13.0465 14.9759 13.9657 14.4286C14.8789 13.8812 15.6143 13.1476 16.1717 12.2334C16.7291 11.3193 17.0079 10.1664 17.0079 8.76893C17.0079 7.40643 16.7529 6.31759 16.2488 5.50241C15.7388 4.68724 15.0983 4.05839 14.3215 3.61004C13.5446 3.1617 12.661 2.86474 11.6825 2.71335C10.704 2.56196 9.71962 2.48627 8.74113 2.48627C7.85753 2.48627 7.11626 2.50956 6.50544 2.56196C5.89463 2.61437 5.35498 2.67259 4.88056 2.73664C4.8094 4.33205 4.74417 5.91 4.67894 7.47048C4.61371 9.03095 4.57812 10.6089 4.57812 12.2043V15.9425H7.31195V15.9483ZM4.57219 22.8773C4.57219 24.5717 4.60778 26.2486 4.67301 27.9139C4.73824 29.5733 4.8094 31.2561 4.87464 32.9505C5.5151 33.0145 6.2801 33.0728 7.15777 33.1252C8.03544 33.1776 8.9309 33.2009 9.85008 33.2009C10.9353 33.2009 11.9731 33.0204 12.9694 32.6535C13.9657 32.2867 14.8433 31.751 15.5846 31.0348C16.3259 30.3186 16.9189 29.4394 17.3637 28.3913C17.8025 27.3433 18.0219 26.1554 18.0219 24.8279C18.0219 23.4013 17.761 22.231 17.2332 21.311C16.7054 20.3968 15.9582 19.6864 14.9738 19.1682C13.9953 18.6558 12.8152 18.2948 11.4453 18.0969C10.0754 17.8989 8.53951 17.7999 6.8494 17.7999H4.56626V22.8773H4.57219Z" fill="#319D50"/>
<path d="M31.4248 13.5552C31.4248 11.36 31.3833 9.21145 31.2943 7.09782C31.2113 4.99001 31.1164 2.83562 31.0156 0.640472C32 0.710344 32.9607 0.762748 33.9096 0.815152C34.8584 0.867556 35.8191 0.890848 36.8035 0.890848C37.7879 0.890848 38.7486 0.850088 39.6975 0.762748C40.6463 0.681231 41.607 0.640472 42.5914 0.640472C44.0146 0.640472 45.3667 0.774393 46.6536 1.04224C47.9404 1.31008 49.0672 1.74678 50.0279 2.36398C50.9945 2.98119 51.7536 3.78471 52.311 4.78039C52.8685 5.77607 53.1472 7.02212 53.1472 8.51855C53.1472 10.114 52.7854 11.4823 52.056 12.6294C51.3266 13.7764 50.443 14.7197 49.3934 15.4708C48.3437 16.2161 47.217 16.7984 46.0191 17.2176C44.8212 17.6369 43.7241 17.9105 42.7456 18.0386C43.1488 18.5394 43.7122 19.2323 44.4179 20.129C45.1295 21.0256 45.9242 22.0155 46.8078 23.0927C47.6855 24.1699 48.6046 25.3053 49.5475 26.4815C50.4964 27.6635 51.4096 28.7931 52.2873 29.8703C53.165 30.9533 53.9952 31.9373 54.778 32.834C55.5548 33.7307 56.1834 34.412 56.6579 34.8778C56.1479 34.8079 55.6438 34.7788 55.1338 34.7788C54.6297 34.7788 54.1197 34.7788 53.6097 34.7788C53.1353 34.7788 52.6431 34.7788 52.139 34.7788C51.629 34.7788 51.1428 34.8137 50.6684 34.8778C50.1643 34.1791 49.3934 33.131 48.3556 31.7394C47.3237 30.3419 46.1792 28.8513 44.9279 27.2501C43.6766 25.6547 42.3957 24.0709 41.097 22.493C39.7923 20.915 38.6004 19.5758 37.5211 18.4811H35.5938V22.1203C35.5938 24.3155 35.6353 26.4757 35.7183 28.6009C35.8013 30.7262 35.8962 32.8224 35.997 34.8836C35.2201 34.8137 34.3899 34.7846 33.5063 34.7846C32.6286 34.7846 31.7984 34.8196 31.0156 34.8836C31.1164 32.8224 31.2113 30.732 31.2943 28.6009C31.3774 26.4757 31.4248 24.3155 31.4248 22.1203V13.5552ZM35.5878 16.3966C36.0622 16.4956 36.5782 16.5655 37.1356 16.5946C37.693 16.6295 38.3098 16.647 38.9858 16.647C40.0355 16.647 41.1266 16.5305 42.2593 16.2976C43.392 16.0647 44.4357 15.6571 45.3845 15.0749C46.3334 14.4926 47.1162 13.7124 47.7448 12.7342C48.3734 11.756 48.6877 10.5157 48.6877 9.0193C48.6877 7.72084 48.4445 6.64947 47.9523 5.80518C47.4601 4.95507 46.8256 4.28546 46.0487 3.78471C45.2719 3.28396 44.4238 2.94625 43.5106 2.75992C42.5973 2.57942 41.6959 2.48626 40.8183 2.48626C39.6322 2.48626 38.6537 2.50955 37.8769 2.56195C37.1 2.61436 36.4358 2.67258 35.8962 2.73663C35.825 4.56495 35.7598 6.37581 35.6946 8.16919C35.6293 9.96257 35.5938 11.756 35.5938 13.5552V16.3966H35.5878Z" fill="#319D50"/>
<path d="M90.4661 34.8895C89.9916 34.8196 89.5469 34.7905 89.1199 34.7905C88.6929 34.7905 88.2482 34.7905 87.7737 34.7905C87.2993 34.7905 86.8486 34.7905 86.4276 34.7905C86.0006 34.7905 85.5558 34.8254 85.0814 34.8895C84.8442 34.1267 84.524 33.2009 84.1148 32.1237C83.7115 31.0465 83.2608 29.9111 82.7686 28.7349C82.2764 27.5529 81.7783 26.3592 81.2683 25.1481C80.7583 23.937 80.2839 22.7783 79.845 21.6836C78.7598 21.6487 77.6627 21.6254 76.5478 21.6079C75.427 21.5905 74.3122 21.5846 73.1973 21.5846C72.1476 21.5846 71.1158 21.5905 70.1017 21.6079C69.0876 21.6254 68.0558 21.6487 67.0061 21.6836C65.9209 24.2747 64.9424 26.7435 64.0588 29.0843C63.1752 31.425 62.517 33.3639 62.0781 34.8895C61.5029 34.8196 60.8743 34.7905 60.1982 34.7905C59.5222 34.7905 58.8936 34.8254 58.3184 34.8895C61.0581 29.0726 63.7326 23.2907 66.336 17.5437C68.9453 11.7967 71.5665 5.94495 74.2054 0H75.172C75.9845 1.9273 76.8621 4.01182 77.811 6.25355C78.7598 8.49528 79.7205 10.7661 80.7049 13.0603C81.6834 15.3544 82.6678 17.6311 83.6463 19.8903C84.6307 22.1494 85.5499 24.2514 86.4157 26.1962C87.2815 28.141 88.0584 29.8761 88.7522 31.4075C89.4579 32.9272 90.0272 34.0917 90.4661 34.8895ZM67.9787 19.3895C68.8564 19.3895 69.7755 19.407 70.7184 19.4419C71.6673 19.4768 72.5805 19.4943 73.4582 19.4943C74.407 19.4943 75.3559 19.4885 76.2988 19.471C77.2476 19.4536 78.1964 19.4303 79.1453 19.3953L73.5116 6.73683L67.9787 19.3895Z" fill="#319D50"/>
<path d="M126.9 34.4062C127.19 34.4644 127.208 34.8371 126.917 34.8895C124.112 35.3727 117.743 35.8036 115.039 34.9477C108.783 32.968 109.904 29.4511 107.419 23.4188C103.861 14.778 99.1285 12.2218 99.1285 12.2218C99.1285 12.2218 99.0929 16.6762 99.0929 18.2424C99.0929 18.9412 99.1107 19.8146 99.1285 20.8277C99.1463 21.8642 99.1641 22.953 99.1641 24.0768C99.1818 25.2005 99.2234 26.3476 99.2412 27.5121C99.2767 28.6767 99.3182 29.7655 99.3538 30.7612C99.3894 31.7569 99.4131 32.6245 99.4487 33.3639C99.4843 34.1209 99.5258 34.6216 99.5614 34.8953C99.0158 34.8196 98.4169 34.7847 97.7764 34.7847C97.1003 34.7847 96.4777 34.8196 95.8965 34.8953C95.9736 34.5634 96.0448 33.952 96.1219 33.0495C96.2167 32.147 96.2938 31.0756 96.365 29.8354C96.4243 28.5777 96.4955 27.2327 96.5903 25.7712C96.6674 24.3155 96.7386 22.8365 96.7979 21.375C96.8335 19.9194 96.8928 18.4928 96.9106 17.0896C96.9462 15.6863 96.9699 14.8187 96.9699 13.7124V13.6367C96.9699 12.2043 96.7682 10.7603 96.1693 9.45604C95.8906 8.84466 95.7305 8.16923 95.7305 7.45886C95.7305 6.29433 96.1456 5.22295 96.8394 4.39613C96.9699 4.20981 97.1419 4.04678 97.3079 3.89539C98.4406 5.08903 104.122 10.9001 108.214 18.9528C114.618 31.5647 125.038 34.0335 126.9 34.4062Z" fill="#319D50"/>
<path d="M135.315 13.5552C135.315 11.36 135.274 9.21145 135.185 7.09782C135.102 4.99001 135.007 2.83562 134.906 0.640472C136.193 0.710344 137.474 0.762748 138.737 0.815152C140.006 0.867556 141.281 0.890848 142.568 0.890848C143.855 0.890848 145.13 0.850088 146.399 0.762748C147.668 0.681231 148.943 0.640472 150.23 0.640472C153.207 0.640472 155.757 1.02477 157.868 1.78754C159.985 2.55031 161.717 3.63915 163.069 5.05406C164.421 6.46897 165.411 8.19248 166.04 10.2362C166.668 12.28 166.983 14.5799 166.983 17.1419C166.983 20.4667 166.402 23.2674 165.233 25.544C164.065 27.8207 162.577 29.6548 160.768 31.0523C158.959 32.4497 156.961 33.4338 154.778 34.016C152.596 34.5983 150.503 34.8894 148.51 34.8894C147.36 34.8894 146.227 34.872 145.112 34.837C143.991 34.8021 142.859 34.7846 141.708 34.7846C140.558 34.7846 139.425 34.7846 138.31 34.7846C137.189 34.7846 136.057 34.8196 134.906 34.8836C135.007 32.8224 135.102 30.732 135.185 28.6009C135.268 26.4757 135.315 24.3155 135.315 22.1203V13.5552ZM139.478 22.132C139.478 25.7187 139.579 29.2414 139.781 32.7001C140.493 32.8631 141.453 32.9912 142.675 33.0728C143.896 33.1543 145.148 33.2009 146.429 33.2009C148.291 33.2009 150.153 32.9854 152.015 32.5545C153.877 32.1237 155.543 31.3085 157.014 30.109C158.485 28.9154 159.689 27.2792 160.62 25.2005C161.551 23.1218 162.013 20.4376 162.013 17.1477C162.013 14.2597 161.652 11.8841 160.922 10.0208C160.193 8.15754 159.196 6.69023 157.927 5.60721C156.658 4.53002 155.14 3.77889 153.385 3.36548C151.624 2.95207 149.696 2.74246 147.597 2.74246C146.073 2.74246 144.656 2.79486 143.333 2.89385C142.011 2.99283 140.831 3.10928 139.781 3.24321C139.68 4.83862 139.603 6.50973 139.55 8.2507C139.496 9.99751 139.473 11.7618 139.473 13.561V22.132H139.478Z" fill="#319D50"/>
<path d="M171.969 17.8407C171.969 15.0167 172.431 12.5013 173.368 10.2887C174.299 8.08187 175.604 6.20697 177.276 4.68143C178.955 3.15589 180.959 1.99135 183.295 1.19365C185.632 0.395941 188.188 0 190.963 0C193.768 0 196.342 0.401764 198.678 1.19365C201.015 1.99135 203.019 3.15589 204.692 4.68143C206.37 6.21279 207.669 8.08187 208.6 10.2887C209.531 12.5013 209.999 15.0167 209.999 17.8407C209.999 20.6647 209.531 23.1859 208.6 25.3927C207.669 27.6053 206.364 29.4744 204.692 30.9999C203.019 32.5313 201.015 33.6667 198.678 34.412C196.342 35.1573 193.768 35.5358 190.963 35.5358C188.188 35.5358 185.632 35.1631 183.295 34.412C180.959 33.6667 178.955 32.5254 177.276 30.9999C175.604 29.4685 174.299 27.6053 173.368 25.3927C172.431 23.1859 171.969 20.6647 171.969 17.8407ZM205.018 17.8407C205.018 15.0807 204.662 12.6992 203.95 10.6904C203.239 8.6816 202.248 7.01632 200.979 5.70622C199.71 4.39612 198.222 3.42373 196.514 2.78906C194.806 2.16021 192.95 1.83996 190.957 1.83996C188.994 1.83996 187.156 2.15439 185.448 2.78906C183.74 3.42373 182.252 4.39029 180.983 5.70622C179.714 7.01632 178.723 8.6816 178.012 10.6904C177.3 12.6992 176.944 15.0865 176.944 17.8407C176.944 20.6006 177.3 22.9821 178.012 24.9909C178.723 26.9997 179.714 28.665 180.983 29.9751C182.252 31.291 183.74 32.2576 185.448 32.8923C187.156 33.5211 188.994 33.8414 190.957 33.8414C192.956 33.8414 194.806 33.5269 196.514 32.8923C198.222 32.2634 199.71 31.291 200.979 29.9751C202.248 28.665 203.239 26.9997 203.95 24.9909C204.662 22.9879 205.018 20.6006 205.018 17.8407Z" fill="#319D50"/>
<path d="M94.5376 1.15893C94.247 1.1007 94.2292 0.728049 94.5198 0.675645C97.3248 0.192363 103.694 -0.238514 106.398 0.617419C112.654 2.59713 111.534 6.11402 114.018 12.1463C117.576 20.7872 122.309 23.3433 122.309 23.3433C122.309 23.3433 122.344 18.889 122.344 17.3227C122.344 16.6239 122.327 15.7505 122.309 14.7374C122.291 13.701 122.273 12.6121 122.273 11.4883C122.255 10.3646 122.214 9.21751 122.196 8.05297C122.161 6.88844 122.119 5.7996 122.083 4.80392C122.048 3.80824 122.024 2.94067 121.989 2.20119C121.953 1.44424 121.911 0.943489 121.876 0.669823C122.421 0.745518 123.02 0.780453 123.661 0.780453C124.337 0.780453 124.96 0.745518 125.541 0.669823C125.464 1.00172 125.392 1.6131 125.315 2.51561C125.221 3.41812 125.143 4.4895 125.072 5.72972C125.013 6.98742 124.942 8.33246 124.847 9.79395C124.77 11.2496 124.699 12.7286 124.639 14.1901C124.604 15.6457 124.544 17.0723 124.527 18.4756C124.491 19.8788 124.467 20.7464 124.467 21.8527V21.9284C124.467 23.3608 124.669 24.8048 125.268 26.1091C125.547 26.7205 125.707 27.3959 125.707 28.1063C125.707 29.2708 125.292 30.3422 124.598 31.169C124.467 31.3553 124.295 31.5183 124.129 31.6697C122.997 30.4761 117.316 24.6651 113.224 16.6123C106.819 4.00039 96.3937 1.5374 94.5376 1.15893Z" fill="#319D50"/>
</svg>
